<?xml version="1.0"?>
<svg xmlns="http://www.w3.org/2000/svg" height="512px" viewBox="-13 0 511 511.36053" width="512px"><g><path d="m381.71875 511.355469c24.878906.359375 45.839844-18.496094 48.101562-43.273438 1.175782-21.765625-13.207031-41.324219-34.332031-46.691406-5.195312-1.261719-9.59375-4.699219-12.070312-9.4375-8.519531-17.195313-14.382813-35.582031-17.394531-54.53125-.890626-5.523437-1.808594-10.539063-2.726563-15.308594-34.894531 9.539063-70.941406 14.1875-107.109375 13.8125-36.167969.375-72.214844-4.273437-107.105469-13.8125-.914062 4.761719-1.835937 9.769531-2.726562 15.273438-3.007813 18.96875-8.878907 37.375-17.410157 54.582031-2.429687 4.675781-6.746093 8.085938-11.855468 9.363281-21.210938 5.3125-35.683594 24.902344-34.539063 46.734375 2.253907 24.785156 23.21875 43.648438 48.101563 43.289063h11.660156c-2.722656-7.167969-2.164062-15.171875 1.527344-21.894531 4.1875-7.160157 10.285156-13.015626 17.613281-16.914063 2.136719-1.195313 4.140625-2.613281 5.980469-4.230469 4.40625-5.804687 11.621094-44.527344 15.679687-76.957031.683594-4.957031 5.222657-8.441406 10.1875-7.820313 4.96875.621094 8.511719 5.117188 7.953125 10.089844-3.558594 28.476563-11.007812 77.730469-20.890625 87.617188-2.820312 2.644531-5.941406 4.949218-9.300781 6.859375-4.617188 2.300781-8.503906 5.835937-11.226562 10.214843-1.4375 2.621094-1.355469 5.808594.210937 8.351563 1.660156 2.898437 4.75 4.683594 8.089844 4.683594h36.972656c4.273437.03125 7.984375-2.921875 8.914063-7.089844 8.121093-33.667969 13.058593-68.027344 14.734374-102.625 0-5.050781 4.09375-9.140625 9.144532-9.140625 5.050781 0 9.140625 4.089844 9.140625 9.140625-1.667969 35.941406-6.75 71.640625-15.175781 106.621094-.265626 1.050781-.589844 2.082031-.976563 3.09375h50.59375c-.386719-1.011719-.710937-2.042969-.976563-3.09375-8.425781-34.980469-13.507812-70.679688-15.175781-106.621094 0-5.050781 4.09375-9.140625 9.140625-9.140625 5.050782 0 9.144532 4.089844 9.144532 9.140625 1.757812 34.589844 6.691406 68.941406 14.734374 102.625.925782 4.167969 4.640626 7.125 8.910157 7.089844h36.96875c3.339843 0 6.425781-1.785157 8.089843-4.679688 1.566407-2.542969 1.648438-5.730469.214844-8.351562-2.726562-4.378907-6.613281-7.914063-11.230468-10.214844-3.359376-1.910156-6.480469-4.214844-9.300782-6.863281-9.882812-9.882813-17.332031-59.136719-20.890625-87.613282-.449219-3.265624.890625-6.515624 3.507813-8.515624 2.617187-2 6.109375-2.4375 9.136718-1.144532 3.03125 1.292969 5.132813 4.117188 5.496094 7.390625 4.058594 32.433594 11.273438 71.152344 15.863282 77.15625 1.796874 1.527344 3.742187 2.878907 5.796874 4.03125 7.328126 3.894531 13.425782 9.753907 17.613282 16.914063 3.691406 6.722656 4.25 14.722656 1.53125 21.890625zm0 0" data-original="#000000" class="active-path" data-old_color="#000000" fill="#000000"/><path d="m7.714844 319.511719c-2.464844.453125-4.640625 1.878906-6.035156 3.960937-1.324219 1.988282-1.800782 4.425782-1.3125 6.765625.476562 2.398438 1.890624 4.507813 3.921874 5.863281 1.988282 1.339844 4.429688 1.828126 6.777344 1.355469 9.207032-1.695312 18.710938.144531 26.617188 5.148438 6.023437 5.839843 9.050781 14.113281 8.21875 22.464843 0 18.066407-10.539063 31.691407-20.738282 44.863282-12.878906 16.71875-27.136718 35.234375-14.878906 59.757812 4.527344 10.332032 13.664063 17.925782 24.652344 20.480469 11.074219 1.722656 22.40625-.039063 32.433594-5.046875-1.738282-5.199219-2.773438-10.605469-3.082032-16.074219-.050781-.929687.101563-1.820312.09375-2.742187-7.625 4.695312-16.5625 6.792968-25.476562 5.980468-5.601562-1.320312-10.1875-5.324218-12.246094-10.699218-7.171875-14.328125.78125-24.660156 12.816406-40.289063 11.597657-14.902343 24.710938-31.738281 24.710938-56.230469 1.03125-13.863281-4.484375-27.410156-14.90625-36.609374-12.109375-8.40625-27.074219-11.628907-41.566406-8.949219zm0 0" data-original="#000000" class="active-path" data-old_color="#000000" fill="#000000"/><path d="m256.1875 229.207031c-7.84375 12.214844-20.257812 20.773438-34.464844 23.757813-1.332031 3.703125-2.042968 7.597656-2.105468 11.535156 0 20.195312 16.371093 36.570312 36.570312 36.570312s36.570312-16.375 36.570312-36.570312c-.0625-3.933594-.773437-7.832031-2.101562-11.53125-14.207031-2.984375-26.625-11.546875-34.46875-23.761719zm0 0" data-original="#000000" class="active-path" data-old_color="#000000" fill="#000000"/><path d="m260.472656 189.863281 13.703125-14.632812c.195313-.644531-1.167969-2.160157-4.289062-2.160157h-27.398438c-3.121093 0-4.488281 1.515626-4.59375 1.945313l14.003907 14.84375c2.558593 1.84375 6.011718 1.847656 8.574218.003906zm0 0" data-original="#000000" class="active-path" data-old_color="#000000" fill="#000000"/><path d="m27.617188 182.210938c0 114.726562 123.128906 155.429687 228.570312 155.429687s228.570312-40.703125 228.570312-155.429687c.726563-33.433594-11.683593-65.820313-34.5625-90.210938-1.699218-1.816406-2.585937-4.25-2.449218-6.734375 1.933594-28.695313-.941406-57.515625-8.511719-85.26171875-16.457031 3.10156275-40 17.28906275-66.042969 39.98046875-2.394531 2.082031-5.699218 2.777344-8.730468 1.835937-35.128907-10.429687-71.628907-15.496093-108.273438-15.035156-37.292969-.492187-74.441406 4.757813-110.136719 15.566406-3.050781.972657-6.390625.277344-8.800781-1.828124-26.304688-23.019532-50.078125-37.394532-66.675781-40.523438-7.792969 28.585938-10.640625 58.296875-8.417969 87.84375.148438 2.421875-.671875 4.808594-2.28125 6.625-21.398438 24.152344-32.917969 55.480469-32.257812 87.742188zm275.25-44.679688c.890624-1.769531 22.5-43.132812 92.976562-22.988281 4.855469 1.386719 7.664062 6.449219 6.277344 11.304687-1.390625 4.855469-6.449219 7.664063-11.304688 6.277344-55.199218-15.773438-71 12.476562-71.648437 13.6875-1.609375 3.003906-4.738281 4.878906-8.144531 4.882812-3.148438-.007812-6.074219-1.636718-7.734376-4.316406-1.660156-2.679687-1.820312-6.023437-.425781-8.851562zm-81.738282 30.164062c3.921875-8.167968 12.304688-13.234374 21.359375-12.910156h27.398438c9.054687-.324218 17.433593 4.746094 21.351562 12.914063 2.929688 6.8125 1.460938 14.722656-3.722656 20.03125l-13.695313 14.628906c-2.125 2.230469-4.6875 3.996094-7.523437 5.195313 2.550781 10.796874 11.855469 29.515624 45.773437 29.515624 5.050782 0 9.144532 4.09375 9.144532 9.140626 0 5.050781-4.09375 9.144531-9.144532 9.144531-.667968 0-1.230468-.089844-1.886718-.101563 3.871094 21.59375-5.492188 43.414063-23.808594 55.488282-18.3125 12.070312-42.0625 12.070312-60.378906 0-18.3125-12.074219-27.675782-33.894532-23.804688-55.488282-.65625.011719-1.21875.101563-1.886718.101563-5.050782 0-9.144532-4.09375-9.144532-9.144531 0-5.046876 4.09375-9.140626 9.144532-9.140626 33.914062 0 43.222656-18.710937 45.777343-29.515624-2.84375-1.195313-5.40625-2.964844-7.53125-5.195313l-13.703125-14.628906c-5.179687-5.3125-6.644531-13.21875-3.714844-20.035157zm-104.597656-53.152343c70.488281-20.160157 92.089844 21.210937 92.976562 22.988281 1.476563 2.914062 1.289063 6.394531-.496093 9.128906-1.785157 2.734375-4.894531 4.3125-8.15625 4.132813-3.261719-.175781-6.183594-2.082031-7.660157-4.996094-.765624-1.429687-16.691406-29.367187-71.636718-13.671875-3.140625.898438-6.523438.050781-8.871094-2.21875s-3.304688-5.621094-2.511719-8.789062c.789063-3.171876 3.214844-5.675782 6.355469-6.574219zm0 0" data-original="#000000" class="active-path" data-old_color="#000000" fill="#000000"/></g> </svg>
