<?xml version="1.0" standalone="no"?>
<!DOCTYPE svg PUBLIC "-//W3C//DTD SVG 20010904//EN"
 "http://www.w3.org/TR/2001/REC-SVG-20010904/DTD/svg10.dtd">
<svg version="1.0" xmlns="http://www.w3.org/2000/svg"
 width="32.000000pt" height="28.000000pt" viewBox="0 0 32.000000 28.000000"
 preserveAspectRatio="xMidYMid meet">

<g transform="translate(0.000000,28.000000) scale(0.100000,-0.100000)"
fill="#4D86C0" stroke="none">
<path d="M118 256 c-30 -15 -46 -48 -40 -85 3 -23 11 -31 34 -36 16 -4 31 -5
33 -3 11 10 -9 78 -22 78 -34 0 2 20 48 26 56 7 57 12 6 24 -23 5 -44 3 -59
-4z"/>
<path d="M163 209 c-23 -23 18 -65 51 -53 20 8 20 28 0 48 -18 19 -36 20 -51
5z"/>
<path d="M246 188 c11 -51 -38 -76 -133 -68 -27 2 -28 -2 -7 -57 18 -47 27
-50 82 -28 78 33 104 92 67 155 l-15 25 6 -27z"/>
</g>
</svg>
